:SAMPLES-PER-SECOND 30
:FULLY-SPECIFIED
:DEGREES
162
root  3.52816 38.0867 0.497323 25.7083 -68.4348 -22.7311
RightUpLeg  -24.5544 -5.53258 13.0259
RightLeg  36.6033 4.81043 3.54542
RightFoot  -5.56413 0.0209839 -1.20662
RightToes  -1.28057e-009 0 -3.6325e-017
Spine  27.4913 1.0638 -11.869
Spine1  -10.1906 -3.61818 21.5613
HEad  -21.7267 -1.62159 -0.766517
LeftShoulder1  0.15908 -4.66962 7.47736
LeftArm  5.95767 -53.2493 -78.3001
LeftForeArm  162.58 -80.7851 -116.051
LeftHand  1.42539 8.31523 51.3563
RightShoulder  0.18193 -2.15555 5.87249
RightArm  -41.5679 21.2131 37.4958
RightForeArm  65.1814 76.4761 42.1015
RightHand  -3.07144 0.942432 -52.7266
LeftUpLeg  -27.8038 -19.0369 7.98667
LeftLeg  46.5973 20.5625 22.0583
LeftFoot  -10.3601 0.15274 -10.5962
LeftToes  -7.27922e-012 9.28972e-011 -9.04533e-012
163
root  3.08021 38.1144 0.123464 36.1609 -60.0754 -31.8297
RightUpLeg  -24.4548 -18.9465 22.6779
RightLeg  31.0726 11.1549 6.98393
RightFoot  -4.96698 -0.0193827 -0.247895
RightToes  -1.28057e-009 0 -3.6325e-017
Spine  25.9319 0.456098 -15.8185
Spine1  -10.7184 -6.65546 38.7792
HEad  -20.7569 2.36371 -0.571554
LeftShoulder1  -0.0154179 -4.65733 9.86881
LeftArm  30.1832 -50.8199 -96.8793
LeftForeArm  89.1571 -77.1547 -40.8314
LeftHand  1.20686 7.78925 52.5401
RightShoulder  0.20049 -2.13505 7.23579
RightArm  -42.9644 16.5639 38.1917
RightForeArm  45.5143 67.0326 21.6309
RightHand  -3.60442 1.78681 -54.3052
LeftUpLeg  -33.247 -28.53 19.1668
LeftLeg  49.6371 21.6199 25.2599
LeftFoot  -9.86784 0.213192 -12.0371
LeftToes  -7.27922e-012 9.28972e-011 -9.04533e-012
164
root  2.82388 38.0824 -0.0830932 36.8653 -55.5506 -31.8116
RightUpLeg  -24.7311 -23.8928 26.4625
RightLeg  28.5471 13.2996 7.53337
RightFoot  -5.73751 -0.0958271 1.18598
RightToes  -1.28057e-009 0 -3.6325e-017
Spine  25.9435 0.188902 -18.8046
Spine1  -10.5089 -8.53539 46.7882
HEad  -21.624 3.62832 2.18146
LeftShoulder1  0.0184252 -4.928 9.40528
LeftArm  48.759 -45.7225 -109.376
LeftForeArm  63.4382 -59.4327 -12.9039
LeftHand  1.12579 7.55285 53.9587
RightShoulder  0.276925 -1.91154 10.1877
RightArm  -42.8373 9.31234 41.2698
RightForeArm  38.0102 59.1464 15.2594
RightHand  -3.9683 2.31382 -55.5114
LeftUpLeg  -35.9438 -31.5109 23.81
LeftLeg  49.7589 21.4634 25.221
LeftFoot  -10.2242 0.181137 -12.3055
LeftToes  -7.27922e-012 9.28972e-011 -9.04533e-012
165
root  2.87778 38.0114 -0.0122525 33.5113 -55.6302 -28.0923
RightUpLeg  -24.8426 -18.5847 23.647
RightLeg  28.8977 8.26702 4.64074
RightFoot  -7.94104 -0.107728 1.72061
RightToes  -1.28057e-009 0 -3.6325e-017
Spine  25.8858 -0.0551182 -18.6914
Spine1  -8.90507 -9.1094 43.9436
HEad  -24.9908 2.19257 5.25281
LeftShoulder1  0.348987 -5.69889 5.35745
LeftArm  60.8291 -39.5809 -111.469
LeftForeArm  55.7009 -41.3798 -6.13319
LeftHand  1.23828 7.67319 55.8396
RightShoulder  0.529133 -0.986455 14.1533
RightArm  -39.8684 1.41631 45.0995
RightForeArm  31.8798 51.8761 11.8055
RightHand  -3.67642 1.80182 -55.1139
LeftUpLeg  -35.2405 -28.9243 21.0028
LeftLeg  47.8928 19.8518 22.2848
LeftFoot  -11.5506 0.0508179 -11.192
LeftToes  -7.27922e-012 9.28972e-011 -9.04533e-012
166
root  3.10752 37.9156 0.398727 26.2637 -57.4868 -21.4047
RightUpLeg  -24.2312 -10.5054 17.405
RightLeg  31.4762 0.410112 0.0139602
RightFoot  -10.6684 -0.0807641 1.7352
RightToes  -1.28057e-009 0 -3.6325e-017
Spine  25.7151 -1.32875 -14.8295
Spine1  -6.26535 -9.22495 34.3063
HEad  -29.5113 -0.844296 5.45034
LeftShoulder1  1.10656 -6.81525 -2.53675
LeftArm  65.4117 -33.2295 -102.463
LeftForeArm  45.1495 -29.0121 -3.79679
LeftHand  1.4822 8.10894 56.3633
RightShoulder  0.953001 0.596899 16.7124
RightArm  -30.8713 -2.31805 49.4669
RightForeArm  27.7311 42.5059 8.42245
RightHand  -3.30931 1.35229 -53.2806
LeftUpLeg  -31.9023 -23.6444 13.7784
LeftLeg  44.9835 16.2639 17.0692
LeftFoot  -13.5512 -0.0839604 -8.68378
LeftToes  -7.27922e-012 9.28972e-011 -9.04533e-012
167
root  3.31116 37.9454 1.0846 15.1089 -59.4681 -11.4469
RightUpLeg  -22.48 -1.5404 9.55309
RightLeg  34.8547 -7.07896 -5.54059
RightFoot  -12.5032 -0.0491934 3.39155
RightToes  -1.28057e-009 0 -3.6325e-017
Spine  24.9865 -3.55565 -9.06606
Spine1  -3.61903 -8.92616 21.5052
HEad  -31.9199 -5.00866 2.71979
LeftShoulder1  2.07859 -7.73274 -11.3669
LeftArm  58.2666 -26.6774 -86.1367
LeftForeArm  35.0762 -23.6968 -3.26908
LeftHand  1.43809 8.13301 54.4594
RightShoulder  1.29875 2.04921 16.8167
RightArm  -14.2542 -1.28337 55.2122
RightForeArm  26.3111 34.1117 6.03366
RightHand  -3.31905 1.57664 -51.9021
LeftUpLeg  -26.5111 -16.2226 4.50396
LeftLeg  40.6195 11.6881 10.95
LeftFoot  -14.7925 -0.0649225 -5.0053
LeftToes  -7.27922e-012 9.28972e-011 -9.04533e-012
168
root  3.39508 38.0489 1.88235 0.329391 -62.1709 2.58836
RightUpLeg  -21.164 9.85917 0.707448
RightLeg  39.5727 -12.6205 -11.2189
RightFoot  -13.0572 0.00427178 6.38158
RightToes  -1.28057e-009 0 -3.6325e-017
Spine  22.6888 -5.46286 -2.88223
Spine1  -1.591 -7.14853 5.63499
HEad  -30.4479 -9.87686 -0.492548
LeftShoulder1  2.55697 -7.89382 -15.6865
LeftArm  40.6576 -20.1014 -70.541
LeftForeArm  32.1668 -23.6577 -3.52257
LeftHand  0.982344 7.34017 52.4109
RightShoulder  1.35636 2.54627 15.7108
RightArm  4.08818 2.23288 62.8147
RightForeArm  28.8532 32.1922 5.43953
RightHand  -3.20237 1.4233 -51.2923
LeftUpLeg  -20.7176 -4.42715 -5.47255
LeftLeg  35.3302 6.03692 4.97745
LeftFoot  -14.422 0.0411112 -1.54588
LeftToes  -7.27922e-012 9.28972e-011 -9.04533e-012
169
root  3.39696 38.1396 2.62696 -17.5133 -65.523 20.2336
RightUpLeg  -21.4009 20.743 -7.37892
RightLeg  44.6418 -14.9382 -15.4878
RightFoot  -12.3168 -0.0165409 7.65195
RightToes  -1.28057e-009 0 -3.6325e-017
Spine  19.8091 -5.94631 3.42346
Spine1  -0.400827 -3.55676 -11.5826
HEad  -26.6508 -14.018 -2.99316
LeftShoulder1  2.22762 -7.15284 -13.9324
LeftArm  20.3435 -15.3621 -61.0357
LeftForeArm  32.3818 -26.4402 -3.93347
LeftHand  0.904603 7.15954 52.7967
RightShoulder  1.18505 2.17584 14.0052
RightArm  15.691 7.74371 71.2927
RightForeArm  38.0124 36.741 6.07366
RightHand  -2.91503 0.900552 -50.679
LeftUpLeg  -16.3824 10.5974 -13.7424
LeftLeg  30.8666 -1.0032 -0.253651
LeftFoot  -12.4985 0.0758701 -0.267417
LeftToes  -7.27922e-012 9.28972e-011 -9.04533e-012
170
root  3.3989 38.3457 3.18433 -33.9636 -68.4027 36.3766
RightUpLeg  -22.0511 27.2061 -12.3058
RightLeg  46.8625 -15.4357 -17.1786
RightFoot  -10.2349 -0.126876 6.24527
RightToes  -1.28057e-009 0 -3.6325e-017
Spine  18.4988 -5.1455 8.16108
Spine1  -0.298502 0.0333086 -23.4115
HEad  -23.3556 -15.7392 -5.48859
LeftShoulder1  1.5285 -5.3088 -10.0047
LeftArm  -2.10529 -13.7289 -57.0882
LeftForeArm  35.4752 -31.9544 -5.0034
LeftHand  1.36545 8.01134 54.2148
RightShoulder  0.905423 1.56518 10.6543
RightArm  21.3216 15.3034 78.2774
RightForeArm  49.0607 46.237 8.30292
RightHand  -2.76441 0.685591 -49.8763
LeftUpLeg  -13.661 21.2075 -17.9692
LeftLeg  27.7135 -6.04131 -3.24305
LeftFoot  -9.52688 0.0941554 -1.95682
LeftToes  -7.27922e-012 9.28972e-011 -9.04533e-012
